<?xml version="1.0" standalone="no"?>
<!DOCTYPE svg PUBLIC "-//W3C//DTD SVG 20010904//EN"
 "http://www.w3.org/TR/2001/REC-SVG-20010904/DTD/svg10.dtd">
<svg version="1.0" xmlns="http://www.w3.org/2000/svg"
 width="550.000000pt" height="594.000000pt" viewBox="0 0 550.000000 594.000000"
 preserveAspectRatio="xMidYMid meet">

<g transform="translate(0.000000,594.000000) scale(0.100000,-0.100000)"
fill="#000000" stroke="none">
<path d="M2845 5161 c-68 -17 -68 -18 -15 -111 27 -46 47 -86 46 -88 -2 -1
-59 27 -127 65 -123 66 -149 73 -200 55 -21 -8 -21 -9 12 -29 19 -11 70 -40
114 -63 44 -23 148 -79 230 -122 83 -44 168 -91 190 -103 36 -21 45 -23 88
-13 26 6 47 14 47 17 0 3 -36 24 -81 46 -57 28 -86 50 -101 73 -11 18 -18 35
-15 38 5 5 101 -17 202 -46 163 -46 204 -53 250 -40 25 7 42 16 38 20 -7 7
-158 47 -393 105 -105 26 -132 33 -138 40 -4 4 -25 41 -48 83 -42 80 -49 85
-99 73z"/>
<path d="M2245 5005 c-78 -22 -95 -60 -49 -115 29 -34 113 -94 184 -131 145
-75 271 -109 408 -109 87 0 103 3 133 23 45 30 51 74 15 110 -73 73 -113 89
-172 67 l-28 -11 32 -29 c43 -39 42 -65 -4 -80 -67 -23 -201 8 -311 71 -78 45
-123 87 -123 114 0 20 7 25 53 35 46 10 61 8 122 -11 77 -24 167 -31 185 -13
9 9 -3 17 -47 34 -155 58 -292 74 -398 45z"/>
<path d="M1787 4885 c-75 -19 -96 -31 -107 -61 -13 -33 7 -71 61 -118 93 -79
246 -154 384 -188 137 -34 290 -15 332 41 49 64 -46 159 -257 258 -148 70
-304 96 -413 68z m226 -71 c149 -34 312 -144 291 -198 -9 -23 -71 -39 -128
-33 -143 15 -346 128 -346 194 0 16 9 27 33 37 43 19 65 19 150 0z"/>
<path d="M1231 4736 l-43 -12 268 -178 c147 -98 277 -183 290 -188 16 -8 38
-5 85 10 35 11 110 33 166 49 57 15 103 30 103 33 0 3 -24 20 -53 38 -58 36
-59 36 -193 -4 -44 -13 -88 -24 -98 -24 -18 0 -81 38 -329 202 -72 48 -136 87
-142 87 -5 -1 -30 -7 -54 -13z"/>
<path d="M885 4644 c-77 -20 -144 -39 -148 -44 -5 -4 16 -25 45 -46 29 -21 58
-43 64 -49 6 -5 51 -37 98 -70 48 -33 140 -98 204 -144 l117 -84 115 32 c117
33 185 57 208 74 61 46 -94 178 -229 194 -42 5 -49 9 -49 28 0 29 -58 81 -127
112 -85 39 -138 38 -298 -3z m272 -70 c57 -33 54 -54 -12 -75 -100 -32 -97
-32 -166 18 l-64 47 60 17 c87 25 131 24 182 -7z m250 -160 c56 -43 43 -57
-80 -89 l-58 -15 -65 46 c-35 25 -64 49 -64 54 0 4 12 10 28 14 15 3 49 12 77
20 60 16 115 6 162 -30z"/>
<path d="M3605 4605 c-49 -13 -108 -30 -130 -38 l-39 -14 64 -35 c228 -124
398 -215 595 -321 83 -44 155 -84 161 -88 15 -12 227 57 277 89 28 19 37 31
37 53 0 62 -127 161 -319 252 -267 124 -452 154 -646 102z m422 -94 c121 -39
289 -137 314 -182 16 -30 -4 -54 -67 -77 l-57 -21 -71 38 c-74 40 -135 73
-323 173 -62 33 -113 61 -113 64 0 2 21 10 48 19 61 19 185 13 269 -14z"/>
<path d="M713 4530 c3 -25 17 -130 32 -235 25 -185 47 -344 65 -475 5 -36 23
-166 40 -290 17 -124 35 -256 40 -295 5 -38 16 -117 24 -175 9 -58 21 -143 26
-190 6 -47 15 -110 20 -140 5 -30 14 -95 20 -145 6 -49 17 -135 25 -190 25
-168 55 -377 55 -387 0 -9 131 -141 135 -136 2 2 6 80 9 173 4 94 9 197 11
230 3 33 10 170 15 305 5 135 14 335 20 445 11 236 17 360 30 670 5 127 12
280 16 340 l6 110 -66 48 c-37 26 -70 47 -75 47 -4 0 -11 -143 -15 -317 -4
-175 -11 -428 -16 -563 -11 -285 -23 -817 -21 -875 4 -76 -18 -22 -29 70 -5
50 -17 142 -25 205 -8 63 -21 169 -29 235 -8 66 -29 226 -45 355 -17 129 -33
253 -36 275 -5 40 -12 98 -61 475 -14 113 -31 245 -38 294 l-11 89 -64 45 -64
46 6 -44z"/>
<path d="M3285 4511 c-27 -10 -45 -20 -40 -23 6 -3 37 -20 70 -38 33 -18 78
-43 100 -55 22 -12 72 -39 110 -60 39 -21 140 -77 225 -125 85 -48 192 -107
236 -132 l82 -46 52 19 c29 10 55 20 57 22 3 4 -146 87 -342 192 -38 21 -99
54 -135 75 -36 20 -114 63 -175 95 -60 32 -123 67 -140 77 -35 21 -34 21 -100
-1z"/>
<path d="M2851 4382 l-55 -17 50 -32 c27 -17 90 -54 139 -83 50 -30 133 -79
185 -110 52 -31 172 -102 266 -158 l170 -101 200 66 c109 36 201 67 203 69 7
6 -22 25 -94 63 l-64 35 -103 -33 c-57 -18 -122 -39 -144 -46 l-42 -13 -163
95 c-90 53 -184 107 -209 121 -25 14 -96 56 -159 94 -63 37 -117 68 -120 67
-3 0 -31 -8 -60 -17z"/>
<path d="M2481 4277 c-119 -17 -194 -76 -177 -140 33 -131 376 -344 641 -397
138 -27 299 -12 359 34 20 15 41 36 47 47 58 110 -251 344 -575 436 -66 19
-229 30 -295 20z m332 -126 c99 -35 198 -93 264 -156 69 -66 77 -91 41 -124
-81 -76 -348 -7 -536 139 -48 37 -85 94 -77 119 19 60 169 71 308 22z"/>
<path d="M1788 4074 c-74 -24 -128 -65 -128 -97 0 -55 137 -166 245 -198 83
-26 207 -28 330 -6 112 21 195 15 250 -17 92 -55 65 -102 -74 -127 -57 -11
-129 0 -184 28 -26 13 -36 12 -100 -7 l-71 -22 24 -18 c14 -11 52 -32 85 -48
123 -60 233 -70 417 -37 77 13 168 82 168 127 0 92 -226 233 -388 242 -57 3
-93 0 -273 -24 -70 -9 -106 -9 -136 -1 -54 15 -93 47 -93 76 0 19 9 26 53 41
63 21 127 21 190 -1 44 -15 51 -15 102 1 30 10 55 21 55 26 0 11 -65 43 -139
67 -93 30 -230 29 -333 -5z"/>
<path d="M1395 3899 c3 -101 10 -274 15 -384 5 -110 12 -279 15 -375 6 -175
23 -656 46 -1250 l12 -314 65 -64 65 -63 -7 143 c-3 79 -8 224 -11 323 -3 99
-7 243 -10 320 -5 135 -27 831 -44 1448 -5 164 -11 300 -13 301 -1 1 -34 24
-71 51 l-68 48 6 -184z"/>
<path d="M4190 4027 c-30 -5 -67 -18 -82 -28 -14 -11 -30 -19 -35 -19 -18 0
-130 -89 -180 -143 -272 -297 -441 -862 -460 -1539 -12 -415 43 -668 169 -785
57 -51 102 -66 188 -61 97 5 186 51 302 157 57 52 138 157 196 256 104 177
213 509 262 800 7 39 16 90 22 115 35 155 47 586 23 780 -18 141 -23 164 -65
265 -68 162 -182 230 -340 202z m30 -548 c80 -33 130 -191 130 -414 0 -126
-22 -372 -41 -465 -6 -30 -15 -74 -19 -96 -23 -108 -67 -239 -115 -339 -82
-171 -170 -256 -281 -270 -48 -7 -53 -5 -89 26 -77 68 -107 186 -106 432 0
362 55 644 172 883 97 199 231 292 349 243z"/>
<path d="M1677 3728 c1 -79 8 -325 13 -548 6 -223 15 -610 21 -860 6 -250 14
-577 17 -726 l7 -271 115 -114 c139 -138 189 -174 241 -174 81 0 126 88 168
330 27 150 36 337 35 720 0 391 -9 540 -45 815 -43 324 -148 628 -255 734 -35
36 -304 236 -317 236 -2 0 -2 -64 0 -142z m241 -584 c89 -80 132 -173 172
-370 55 -278 63 -886 14 -1102 -35 -157 -80 -174 -191 -72 l-50 46 -6 314
c-16 755 -20 1240 -11 1240 5 0 37 -25 72 -56z"/>
<path d="M2823 3502 c-254 -87 -464 -159 -466 -162 -6 -6 -15 -657 -23 -1692
l-6 -817 233 103 c461 204 624 278 634 287 9 9 36 398 29 408 -2 2 -41 -12
-86 -31 -46 -20 -139 -59 -208 -88 -69 -29 -143 -60 -165 -70 -22 -10 -66 -30
-97 -44 l-58 -25 1 127 c1 70 4 199 8 286 l6 159 280 112 280 112 6 94 c4 52
9 142 12 201 l6 107 -52 -19 c-29 -10 -77 -28 -107 -40 -30 -12 -77 -30 -105
-40 -27 -10 -103 -39 -168 -64 -65 -25 -124 -46 -133 -46 -12 0 -13 23 -9 153
3 83 7 210 9 280 2 71 8 132 12 137 5 4 74 31 154 59 80 29 163 59 185 67 22
9 71 27 110 40 191 65 179 58 186 106 4 24 10 122 13 218 4 96 10 190 13 208
4 27 2 32 -13 31 -11 0 -227 -71 -481 -157z"/>
</g>
</svg>
